<svg width="148" height="59" viewBox="0 0 148 59" fill="none" xmlns="http://www.w3.org/2000/svg">
<path d="M43.4305 20.3485C43.4305 20.3485 56.6806 15.0903 65.334 14.6837C73.9873 14.2771 87.2477 19.942 87.2477 19.942L66.2513 0.119629L43.4305 20.3485Z" fill="#00A0CF"/>
<path d="M-5.28918 33.4674H11.5997V58.548H23.0152V37.1084L33.5134 28.6067H-5.28918V33.4674Z" fill="#C1272D"/>
<path d="M33.5132 35.4905H64.0905V39.9356H44.0114V43.9832H62.735V49.2414H44.0114V52.0784C43.9718 52.4324 44.0212 52.7897 44.1562 53.1247C44.2913 53.4596 44.5085 53.7639 44.7922 54.0154C45.076 54.2669 45.4192 54.4595 45.7971 54.5791C46.175 54.6988 46.5781 54.7427 46.9774 54.7075H64.5594V58.9539H38.5279C35.9288 58.9539 32.9323 55.4574 32.9323 53.3794C32.9323 51.3014 33.5132 35.4905 33.5132 35.4905Z" fill="#C1272D"/>
<path d="M71.8578 26.5833H82.356V58.5483L71.9597 58.5664L71.8578 26.5833Z" fill="#C1272D"/>
<path d="M101.079 35.8972H91.9469V58.5562H101.079V35.8972Z" fill="#C1272D"/>
<path d="M91.9469 23.3481L101.303 31.6421H91.9469V23.3481Z" fill="#C1272D"/>
<path d="M108.663 35.8528L120.629 46.8209L108.296 58.4576L119.752 58.3492L126.561 51.6725L134.327 58.5569H146.65L134.552 47.8328L147.099 36.2955L135.52 36.1871L127.244 44.1918L119.711 35.898L108.663 35.8528Z" fill="#C1272D"/>
<path d="M132.115 47.6238C132.117 48.1856 131.93 48.7354 131.58 49.2033C131.229 49.6712 130.729 50.0362 130.144 50.252C129.559 50.4679 128.914 50.5248 128.292 50.4157C127.671 50.3065 127.099 50.0361 126.651 49.6388C126.203 49.2415 125.898 48.7352 125.775 48.1841C125.652 47.6329 125.716 47.0618 125.959 46.543C126.203 46.0243 126.615 45.5813 127.143 45.2702C127.67 44.9592 128.291 44.7941 128.924 44.7959C129.77 44.7983 130.58 45.097 131.177 45.6268C131.775 46.1566 132.112 46.8745 132.115 47.6238V47.6238Z" fill="#32425C"/>
</svg>
