<?xml version="1.0" encoding="utf-8"?>
<!-- Generator: Adobe Illustrator 24.3.0, SVG Export Plug-In . SVG Version: 6.00 Build 0)  -->
<svg version="1.1" id="Слой_1" xmlns="http://www.w3.org/2000/svg" xmlns:xlink="http://www.w3.org/1999/xlink" x="0px" y="0px"
	 viewBox="0 0 313 199" style="enable-background:new 0 0 313 199;" xml:space="preserve">
<style type="text/css">
	.st0{fill:none;stroke:#00A0CF;stroke-width:3;stroke-miterlimit:10;}
	.st1{fill:#C1272D;}
	.st2{fill:#3D454C;}
</style>
<path id="svg_6" class="st0" d="M101.7,69.5c0,0,26.7-11.9,44.1-12.9s44.1,11.9,44.1,11.9l-42.3-44.9L101.7,69.5z"/>
<polygon id="svg_7" class="st1" points="3.6,99.3 37.5,99.3 37.5,156.3 60.5,156.3 60.5,107.5 81.6,88.2 3.6,88.2 "/>
<path id="svg_8" class="st1" d="M81.6,103.8h61.6v10.1h-40.4v9.2h37.8V135h-37.8v6.4c-0.2,3.1,1.8,5.7,4.9,6c0.4,0,0.8,0,1,0h35.5
	v9.6H91.9c-5.1,0-11.3-8-11.3-12.7S81.6,103.8,81.6,103.8z"/>
<polygon id="svg_9" class="st1" points="158.7,83.7 179.9,83.7 179.9,156.3 158.9,156.3 "/>
<rect id="svg_10" x="199.4" y="104.8" class="st1" width="18.5" height="51.5"/>
<polygon id="svg_11" class="st1" points="199.4,76.3 218,95.2 199.4,95.2 "/>
<polygon id="svg_12" class="st1" points="233,104.6 257,129.6 232.2,156.1 255.2,155.7 268.9,140.5 284.5,156.3 309.4,156.3 
	285.1,131.9 310.4,105.6 287,105.4 270.4,123.7 255.2,104.8 "/>
<path id="svg_13" class="st2" d="M280.2,131.5c0,3.5-2.9,6.4-6.4,6.4s-6.4-2.9-6.4-6.4c0-3.5,2.9-6.4,6.4-6.4l0,0
	C277.3,124.9,280.2,127.8,280.2,131.5z"/>
</svg>
