<svg width="196" height="76" viewBox="0 0 196 76" fill="none" xmlns="http://www.w3.org/2000/svg">
<path d="M91.9598 1.35517L114.581 22.7115C113.079 22.1684 111.3 21.5578 109.358 20.9545C103.69 19.1945 96.5038 17.4562 90.7547 17.7264C85.0564 17.9941 77.913 19.8489 72.2519 21.608C70.4069 22.1813 68.7097 22.7475 67.2585 23.2509L91.9598 1.35517Z" stroke="#00A0CF" stroke-width="2"/>
<path d="M0 42.8752H21.7143V75.1217H36.3914V47.5565L49.8891 36.6257H0V42.8752Z" fill="#C1272D"/>
<path d="M49.8891 45.4773H89.2029V51.1925H63.3869V56.3965H87.46V63.1571H63.3869V66.8046C63.3359 67.2597 63.3994 67.7191 63.573 68.1498C63.7467 68.5805 64.0259 68.9716 64.3908 69.295C64.7556 69.6184 65.1968 69.866 65.6827 70.0198C66.1686 70.1737 66.6869 70.2301 67.2003 70.1849H89.8057V75.6445H56.3366C52.9949 75.6445 49.1422 71.149 49.1422 68.4773C49.1422 65.8056 49.8891 45.4773 49.8891 45.4773Z" fill="#C1272D"/>
<path d="M99.1885 34.0237H112.686V75.1217L99.3195 75.1449L99.1885 34.0237Z" fill="#C1272D"/>
<path d="M136.759 46H125.018V75.1333H136.759V46Z" fill="#C1272D"/>
<path d="M125.018 29.8651L137.048 40.5287H125.018V29.8651Z" fill="#C1272D"/>
<path d="M146.509 45.9419L161.894 60.0439L146.037 75.0055L160.767 74.8662L169.521 66.2818L179.506 75.1333H195.35L179.795 61.3449L195.926 46.5111L181.04 46.3717L170.399 56.6636L160.714 46L146.509 45.9419Z" fill="#C1272D"/>
<path d="M176.663 61.0777C176.665 61.8001 176.426 62.5069 175.975 63.1085C175.524 63.7101 174.881 64.1794 174.129 64.4569C173.376 64.7344 172.548 64.8077 171.748 64.6673C170.949 64.5269 170.215 64.1793 169.638 63.6685C169.062 63.1577 168.67 62.5067 168.512 61.7981C168.353 61.0895 168.436 60.3551 168.749 59.6882C169.062 59.0212 169.591 58.4517 170.27 58.0518C170.949 57.6518 171.746 57.4396 172.561 57.4419C173.648 57.445 174.689 57.829 175.458 58.5102C176.226 59.1914 176.659 60.1144 176.663 61.0777V61.0777Z" fill="#3D454C"/>
</svg>
