<svg width="10" height="15" viewBox="0 0 10 15" fill="none" xmlns="http://www.w3.org/2000/svg">
<path d="M4.26348 0.00902653C3.70732 0.0610418 3.24852 0.159737 2.80439 0.323784C2.599 0.398472 2.26557 0.561185 2.07085 0.679886C1.63339 0.949296 1.2026 1.34941 0.902516 1.76953C0.449053 2.40305 0.159636 3.18327 0.0222636 4.14755C0.006259 4.25558 -0.00307701 4.34894 0.000924135 4.35561C0.00492528 4.36227 0.0636088 4.40095 0.128961 4.4423L0.250329 4.51698L1.14659 4.62368C1.64006 4.68237 2.06018 4.73171 2.08285 4.73438L2.12153 4.73705L2.15888 4.53699C2.38027 3.32998 2.84974 2.5911 3.64597 2.19098C4.00207 2.0136 4.38351 1.92958 4.84631 1.92958C5.49316 1.92958 6.04532 2.11763 6.51746 2.49907C6.74552 2.68446 6.99359 2.96721 7.14297 3.21528C7.46039 3.73943 7.54575 4.42496 7.36303 4.98378C7.31102 5.14383 7.18031 5.39324 7.07628 5.53061C6.85489 5.82536 6.51746 6.16946 5.98397 6.64426C5.19041 7.35246 4.83031 7.72857 4.54889 8.14469C4.00474 8.94759 3.78601 9.82784 3.81935 11.0829L3.82735 11.4123L4.74895 11.4096L5.67055 11.4056L5.67322 11.2656C5.68122 10.8628 5.72256 10.32 5.76524 10.0719C5.84126 9.62378 6.01731 9.22367 6.28939 8.8849C6.41476 8.72752 6.8909 8.26206 7.31102 7.88462C8.53003 6.7883 9.06085 6.13478 9.34894 5.37456C9.64635 4.59301 9.66236 3.66074 9.39161 2.83917C9.19156 2.235 8.81412 1.66417 8.3033 1.19737C7.57776 0.533177 6.71618 0.163738 5.57719 0.0290327C5.36113 0.00235844 4.47287 -0.00964546 4.26348 0.00902653Z" fill="#C1C3C5"/>
<path d="M3.74468 12.6793C3.71801 12.81 3.71667 12.8407 3.71667 13.9064V15H4.79698H5.87729V13.8957C5.87596 12.9087 5.87329 12.7807 5.85329 12.6727L5.83061 12.5526L4.80232 12.5486L3.77402 12.546L3.74468 12.6793Z" fill="#C1C3C5"/>
</svg>
