<svg width="25" height="25" viewBox="0 0 25 25" fill="none" xmlns="http://www.w3.org/2000/svg">
<path d="M15.6251 0H9.37508C7.99425 0.00165402 6.67045 0.550919 5.69406 1.52731C4.71767 2.50371 4.1684 3.82751 4.16675 5.20833V19.7917C4.1684 21.1725 4.71767 22.4963 5.69406 23.4727C6.67045 24.4491 7.99425 24.9983 9.37508 25H15.6251C17.0059 24.9983 18.3297 24.4491 19.3061 23.4727C20.2825 22.4963 20.8318 21.1725 20.8334 19.7917V5.20833C20.8318 3.82751 20.2825 2.50371 19.3061 1.52731C18.3297 0.550919 17.0059 0.00165402 15.6251 0V0ZM9.37508 2.08333H15.6251C16.4539 2.08333 17.2487 2.41257 17.8348 2.99862C18.4208 3.58468 18.7501 4.37953 18.7501 5.20833V16.6667H6.25008V5.20833C6.25008 4.37953 6.57932 3.58468 7.16537 2.99862C7.75142 2.41257 8.54628 2.08333 9.37508 2.08333ZM15.6251 22.9167H9.37508C8.54628 22.9167 7.75142 22.5874 7.16537 22.0014C6.57932 21.4153 6.25008 20.6205 6.25008 19.7917V18.75H18.7501V19.7917C18.7501 20.6205 18.4208 21.4153 17.8348 22.0014C17.2487 22.5874 16.4539 22.9167 15.6251 22.9167Z" fill="white"/>
<path d="M12.4999 21.875C13.0752 21.875 13.5416 21.4086 13.5416 20.8333C13.5416 20.258 13.0752 19.7916 12.4999 19.7916C11.9246 19.7916 11.4583 20.258 11.4583 20.8333C11.4583 21.4086 11.9246 21.875 12.4999 21.875Z" fill="white"/>
</svg>
