<svg width="25" height="25" viewBox="0 0 25 25" fill="none" xmlns="http://www.w3.org/2000/svg">
<g clip-path="url(#clip0)">
<path d="M12.5 0C10.0277 0 7.61099 0.733112 5.55538 2.10663C3.49976 3.48015 1.89761 5.43238 0.951511 7.71646C0.00541608 10.0005 -0.242126 12.5139 0.24019 14.9386C0.722505 17.3634 1.91301 19.5907 3.66117 21.3388C5.40933 23.087 7.63661 24.2775 10.0614 24.7598C12.4861 25.2421 14.9995 24.9946 17.2835 24.0485C19.5676 23.1024 21.5199 21.5002 22.8934 19.4446C24.2669 17.389 25 14.9723 25 12.5C24.9964 9.18589 23.6783 6.00855 21.3349 3.66512C18.9915 1.3217 15.8141 0.00358446 12.5 0V0ZM12.5 22.9167C10.4398 22.9167 8.42583 22.3057 6.71282 21.1611C4.9998 20.0165 3.66467 18.3897 2.87626 16.4863C2.08785 14.5829 1.88156 12.4884 2.28349 10.4678C2.68542 8.44717 3.67751 6.5911 5.13431 5.1343C6.59111 3.67751 8.44718 2.68542 10.4678 2.28349C12.4885 1.88156 14.5829 2.08784 16.4863 2.87625C18.3897 3.66467 20.0165 4.9998 21.1611 6.71281C22.3057 8.42582 22.9167 10.4398 22.9167 12.5C22.9136 15.2617 21.8152 17.9095 19.8624 19.8623C17.9095 21.8152 15.2617 22.9136 12.5 22.9167Z" fill="white"/>
<path d="M12.5 10.4167H11.4583C11.182 10.4167 10.9171 10.5264 10.7217 10.7218C10.5264 10.9171 10.4166 11.1821 10.4166 11.4584C10.4166 11.7346 10.5264 11.9996 10.7217 12.1949C10.9171 12.3903 11.182 12.5 11.4583 12.5H12.5V18.75C12.5 19.0263 12.6097 19.2912 12.8051 19.4866C13.0004 19.6819 13.2654 19.7917 13.5416 19.7917C13.8179 19.7917 14.0828 19.6819 14.2782 19.4866C14.4735 19.2912 14.5833 19.0263 14.5833 18.75V12.5C14.5833 11.9475 14.3638 11.4176 13.9731 11.0269C13.5824 10.6362 13.0525 10.4167 12.5 10.4167Z" fill="white"/>
<path d="M12.5 8.33331C13.3629 8.33331 14.0625 7.63376 14.0625 6.77081C14.0625 5.90787 13.3629 5.20831 12.5 5.20831C11.6371 5.20831 10.9375 5.90787 10.9375 6.77081C10.9375 7.63376 11.6371 8.33331 12.5 8.33331Z" fill="white"/>
</g>
<defs>
<clipPath id="clip0">
<rect width="25" height="25" fill="white"/>
</clipPath>
</defs>
</svg>
