<svg width="25" height="21" viewBox="0 0 25 21" fill="none" xmlns="http://www.w3.org/2000/svg">
<path d="M23.7146 2.75624C23.3339 2.59768 22.9147 2.556 22.5103 2.63651C22.1059 2.71702 21.7346 2.91607 21.4437 3.20832L18.75 5.90207L13.9729 1.12499C13.5822 0.734422 13.0524 0.515015 12.5 0.515015C11.9476 0.515015 11.4178 0.734422 11.0271 1.12499L6.25 5.90207L3.55625 3.20832C3.26489 2.91705 2.89372 2.7187 2.48965 2.63835C2.08558 2.55801 1.66676 2.59926 1.28614 2.75691C0.905512 2.91455 0.580172 3.18151 0.351247 3.52403C0.122321 3.86655 8.79673e-05 4.26926 0 4.68124L0 15.7083C0.00165402 17.0891 0.550919 18.4129 1.52731 19.3893C2.50371 20.3657 3.82751 20.915 5.20833 20.9167H19.7917C21.1725 20.915 22.4963 20.3657 23.4727 19.3893C24.4491 18.4129 24.9983 17.0891 25 15.7083V4.68124C25.0001 4.26922 24.878 3.86643 24.6492 3.52379C24.4204 3.18115 24.0952 2.91404 23.7146 2.75624V2.75624ZM22.9167 15.7083C22.9167 16.5371 22.5874 17.332 22.0014 17.918C21.4153 18.5041 20.6205 18.8333 19.7917 18.8333H5.20833C4.37953 18.8333 3.58468 18.5041 2.99862 17.918C2.41257 17.332 2.08333 16.5371 2.08333 15.7083V4.68124L5.51354 8.11144C5.70888 8.30673 5.97379 8.41643 6.25 8.41643C6.52621 8.41643 6.79112 8.30673 6.98646 8.11144L12.5 2.5979L18.0135 8.11144C18.2089 8.30673 18.4738 8.41643 18.75 8.41643C19.0262 8.41643 19.2911 8.30673 19.4865 8.11144L22.9167 4.68124V15.7083Z" fill="#C1272D"/>
</svg>
