<svg width="25" height="25" viewBox="0 0 25 25" fill="none" xmlns="http://www.w3.org/2000/svg">
<g clip-path="url(#clip0_906_747)">
<path d="M11.4584 23.9583C11.4584 23.7523 11.5195 23.5509 11.6339 23.3796C11.7484 23.2083 11.9111 23.0748 12.1014 22.996C12.2917 22.9171 12.5012 22.8965 12.7032 22.9367C12.9053 22.9769 13.0909 23.0761 13.2366 23.2218C13.3823 23.3675 13.4815 23.5531 13.5217 23.7551C13.5619 23.9572 13.5412 24.1666 13.4624 24.357C13.3836 24.5473 13.25 24.71 13.0787 24.8245C12.9074 24.9389 12.7061 25 12.5 25C12.2238 25 11.9588 24.8903 11.7635 24.6949C11.5681 24.4996 11.4584 24.2346 11.4584 23.9583ZM16.1823 21.7479C16.3776 21.5526 16.4873 21.2877 16.4873 21.0115C16.4873 20.7353 16.3776 20.4704 16.1823 20.275C15.2056 19.2986 13.8811 18.7501 12.5 18.7501C11.119 18.7501 9.79444 19.2986 8.81774 20.275C8.62799 20.4715 8.52299 20.7346 8.52537 21.0077C8.52774 21.2808 8.63729 21.5421 8.83043 21.7352C9.02356 21.9284 9.28482 22.0379 9.55794 22.0403C9.83107 22.0427 10.0942 21.9377 10.2907 21.7479C10.8862 21.1803 11.6773 20.8636 12.5 20.8636C13.3227 20.8636 14.1139 21.1803 14.7094 21.7479C14.9047 21.9432 15.1696 22.0529 15.4459 22.0529C15.7221 22.0529 15.987 21.9432 16.1823 21.7479V21.7479ZM19.1292 18.8021C19.3245 18.6068 19.4342 18.3419 19.4342 18.0656C19.4342 17.7894 19.3245 17.5245 19.1292 17.3292C17.3697 15.5735 14.9856 14.5876 12.5 14.5876C10.0144 14.5876 7.63037 15.5735 5.87086 17.3292C5.68111 17.5256 5.57612 17.7888 5.57849 18.0619C5.58087 18.335 5.69042 18.5963 5.88355 18.7894C6.07668 18.9825 6.33795 19.0921 6.61107 19.0945C6.88419 19.0968 7.14732 18.9918 7.34378 18.8021C8.71274 17.4373 10.567 16.6709 12.5 16.6709C14.4331 16.6709 16.2873 17.4373 17.6563 18.8021C17.8516 18.9974 18.1165 19.1071 18.3927 19.1071C18.6689 19.1071 18.9339 18.9974 19.1292 18.8021ZM6.23649 23.0844C6.25852 22.9494 6.25374 22.8113 6.22242 22.6782C6.1911 22.545 6.13386 22.4193 6.05396 22.3083C5.97406 22.1972 5.87307 22.103 5.75676 22.031C5.64045 21.959 5.51109 21.9106 5.37607 21.8886C4.58894 21.7641 3.85753 21.4055 3.27711 20.8594C2.69668 20.3134 2.29414 19.6052 2.1219 18.8271C2.00982 18.0831 2.13249 17.3226 2.47286 16.6516C2.81322 15.9806 3.35433 15.4324 4.02086 15.0833C4.50068 14.8201 4.85762 14.3785 5.01453 13.8542C5.17144 13.3299 5.11571 12.7648 4.8594 12.2813C4.45436 11.5099 4.21508 10.6623 4.15691 9.793C4.09874 8.92368 4.22297 8.0518 4.52162 7.23332C4.82028 6.41484 5.28676 5.66785 5.89113 5.04028C6.4955 4.41272 7.2244 3.91845 8.03105 3.58919C8.83771 3.25993 9.70429 3.10297 10.5752 3.12837C11.4461 3.15377 12.302 3.36098 13.0881 3.73669C13.8742 4.11241 14.5731 4.64832 15.1398 5.31005C15.7066 5.97177 16.1288 6.74469 16.3792 7.57918C16.5334 8.082 16.808 8.53956 17.1792 8.91207C17.5505 9.28459 18.0071 9.5608 18.5094 9.71668C19.8702 10.1309 21.0479 10.9991 21.8463 12.1763C22.6447 13.3536 23.0155 14.769 22.8969 16.1865C22.8038 17.251 22.4245 18.2704 21.7991 19.1369C21.1738 20.0034 20.3258 20.6846 19.3448 21.1083C19.1019 21.2308 18.9165 21.4434 18.8284 21.7008C18.7402 21.9581 18.7561 22.2398 18.8729 22.4855C18.9896 22.7312 19.1978 22.9215 19.453 23.0157C19.7083 23.1099 19.9902 23.1005 20.2386 22.9896C21.554 22.4131 22.6889 21.4913 23.5228 20.322C24.3567 19.1527 24.8585 17.7794 24.975 16.3479C25.1324 14.458 24.6371 12.5713 23.5718 11.0023C22.5065 9.43338 20.9355 8.27701 19.1209 7.72605C18.9422 7.67053 18.78 7.57166 18.6488 7.43826C18.5175 7.30485 18.4214 7.14106 18.3688 6.96147C17.8173 5.19072 16.6909 3.65453 15.1679 2.59615C13.645 1.53776 11.8124 1.01767 9.96054 1.11822C8.10864 1.21877 6.3432 1.93422 4.94376 3.15128C3.54433 4.36835 2.59089 6.01747 2.2344 7.83751C1.87025 9.67907 2.15669 11.5899 3.04482 13.2438C1.99795 13.7911 1.1478 14.6513 0.612707 15.7045C0.0776126 16.7577 -0.115797 17.9515 0.059402 19.1198C0.297406 20.3366 0.902386 21.4513 1.79294 22.3139C2.6835 23.1765 3.8169 23.7457 5.04065 23.9448C5.17567 23.9668 5.3137 23.9621 5.44687 23.9307C5.58004 23.8994 5.70573 23.8422 5.81678 23.7623C5.92782 23.6824 6.02204 23.5814 6.09406 23.4651C6.16607 23.3488 6.21447 23.2194 6.23649 23.0844V23.0844Z" fill="#C1272D"/>
</g>
<defs>
<clipPath id="clip0_906_747">
<rect width="25" height="25" fill="white"/>
</clipPath>
</defs>
</svg>
