<svg width="150" height="150" viewBox="0 0 150 150" fill="none" xmlns="http://www.w3.org/2000/svg">
<path d="M93.7501 0H56.2501C47.9651 0.00992411 40.0224 3.30551 34.164 9.16387C28.3056 15.0222 25.01 22.965 25.0001 31.25V118.75C25.01 127.035 28.3056 134.978 34.164 140.836C40.0224 146.694 47.9651 149.99 56.2501 150H93.7501C102.035 149.99 109.978 146.694 115.836 140.836C121.695 134.978 124.99 127.035 125 118.75V31.25C124.99 22.965 121.695 15.0222 115.836 9.16387C109.978 3.30551 102.035 0.00992411 93.7501 0V0ZM56.2501 12.5H93.7501C98.7229 12.5 103.492 14.4754 107.008 17.9917C110.525 21.5081 112.5 26.2772 112.5 31.25V100H37.5001V31.25C37.5001 26.2772 39.4756 21.5081 42.9919 17.9917C46.5082 14.4754 51.2773 12.5 56.2501 12.5ZM93.7501 137.5H56.2501C51.2773 137.5 46.5082 135.525 42.9919 132.008C39.4756 128.492 37.5001 123.723 37.5001 118.75V112.5H112.5V118.75C112.5 123.723 110.525 128.492 107.008 132.008C103.492 135.525 98.7229 137.5 93.7501 137.5Z" fill="#00A0CF"/>
<path d="M74.9999 131.25C78.4517 131.25 81.2499 128.452 81.2499 125C81.2499 121.548 78.4517 118.75 74.9999 118.75C71.5481 118.75 68.7499 121.548 68.7499 125C68.7499 128.452 71.5481 131.25 74.9999 131.25Z" fill="#00A0CF"/>
</svg>
