<svg width="150" height="120" viewBox="0 0 150 120" fill="none" xmlns="http://www.w3.org/2000/svg">
<path d="M118.75 0.75H31.25C22.965 0.759924 15.0222 4.05551 9.16387 9.91388C3.30551 15.7722 0.00992411 23.715 0 32L0 69.5C0.00992411 77.785 3.30551 85.7278 9.16387 91.5861C15.0222 97.4445 22.965 100.74 31.25 100.75H68.75V107H50C48.3424 107 46.7527 107.658 45.5806 108.831C44.4085 110.003 43.75 111.592 43.75 113.25C43.75 114.908 44.4085 116.497 45.5806 117.669C46.7527 118.842 48.3424 119.5 50 119.5H100C101.658 119.5 103.247 118.842 104.419 117.669C105.592 116.497 106.25 114.908 106.25 113.25C106.25 111.592 105.592 110.003 104.419 108.831C103.247 107.658 101.658 107 100 107H81.25V100.75H118.75C127.035 100.74 134.978 97.4445 140.836 91.5861C146.694 85.7278 149.99 77.785 150 69.5V32C149.99 23.715 146.694 15.7722 140.836 9.91388C134.978 4.05551 127.035 0.759924 118.75 0.75ZM137.5 69.5C137.5 74.4728 135.525 79.242 132.008 82.7583C128.492 86.2746 123.723 88.25 118.75 88.25H31.25C26.2772 88.25 21.5081 86.2746 17.9917 82.7583C14.4754 79.242 12.5 74.4728 12.5 69.5V32C12.5 27.0272 14.4754 22.2581 17.9917 18.7418C21.5081 15.2254 26.2772 13.25 31.25 13.25H118.75C123.723 13.25 128.492 15.2254 132.008 18.7418C135.525 22.2581 137.5 27.0272 137.5 32V69.5Z" fill="#00A0CF"/>
</svg>
