<svg width="150" height="109" viewBox="0 0 150 109" fill="none" xmlns="http://www.w3.org/2000/svg">
<g clip-path="url(#clip0_665_454)">
<path d="M69.1992 0.117371C48.1289 1.46503 28.3008 10.8283 8.55469 28.758C7.48829 29.7307 5.1211 32.0041 3.29297 33.8088L-0.0234375 37.1017L6.16407 43.0314L12.3633 48.9611L15.5274 45.8322C17.2734 44.1213 19.4531 42.0236 20.3906 41.1799C42.293 21.4338 63.7735 13.9689 85.9571 18.4103C101.871 21.5861 118.734 31.2307 135.34 46.6408C136.207 47.4494 137.191 48.3517 137.531 48.6682L138.141 49.2189L143.391 43.7463C146.285 40.7228 148.957 37.9455 149.332 37.5471L150 36.8322L147.973 34.9572C124.981 13.5939 103.137 2.39081 80.3907 0.293152C78.1172 0.0822144 71.3907 -0.0232544 69.1992 0.117371Z" fill="#00A0CF"/>
<path d="M69.668 30.7853C63.9609 31.2424 59.6719 32.1213 54.4336 33.9142C43.6523 37.5705 33.1875 44.4494 22.6875 54.7384C21.2227 56.1681 20.0391 57.3752 20.0391 57.422C20.0391 57.4806 22.3711 59.7541 25.2187 62.4728C28.0781 65.2033 30.8437 67.8517 31.3711 68.3674L32.332 69.2931L34.5469 67.1369C38.0625 63.6916 40.6172 61.465 43.8867 59.0041C51.4102 53.3205 58.8633 49.8166 66.3281 48.4689C69.0352 47.9884 70.3359 47.8713 73.4766 47.8713C76.6055 47.883 77.7891 47.9767 80.625 48.4689C91.5937 50.3791 103.113 56.883 115.055 67.8986C116.051 68.8009 116.883 69.5392 116.906 69.5275C117.07 69.422 128.672 57.2814 128.672 57.1994C128.672 57.0119 124.055 52.84 121.523 50.7306C110.191 41.3088 99.0351 35.2619 87.7734 32.4611C84.4805 31.6408 81.3398 31.1252 77.7539 30.8205C76.4883 30.715 70.8281 30.6916 69.668 30.7853Z" fill="#00A0CF"/>
<path d="M70.7227 60.7735C62.8594 61.3946 55.0547 64.711 47.9297 70.4649C45.5977 72.3517 41.543 76.1603 41.6133 76.3946C41.6368 76.4532 44.4141 79.1485 47.7891 82.3712L53.9063 88.2306L55.1133 87.047C61.8399 80.4376 68.3672 77.379 74.6133 77.9298C78.4336 78.2696 82.0312 79.6173 86.1328 82.2423C88.2422 83.59 91.2539 85.9806 93.082 87.7618L93.8789 88.5353L94.5469 87.8322C94.9219 87.4454 97.5703 84.6798 100.43 81.6915C103.301 78.7032 105.656 76.2071 105.668 76.1251C105.68 76.0548 105.094 75.4571 104.379 74.8009C95.4609 66.6915 86.8594 62.2384 77.7422 60.9962C76.4063 60.8087 72 60.6798 70.7227 60.7735Z" fill="#00A0CF"/>
<path d="M71.6602 88.8399C68.1563 89.3438 65.0391 91.6056 63.5859 94.6993C62.9414 96.0587 62.7656 96.8907 62.7656 98.4962C62.7656 100.102 62.9414 100.934 63.5859 102.293C65.3906 106.113 69.4922 108.469 73.9453 108.234C78.0938 108.024 81.586 105.809 83.2149 102.352C83.8477 101.027 84.0586 100.043 84.0586 98.4962C84.0586 96.9024 83.836 95.9181 83.1446 94.5118C81.1875 90.4806 76.4649 88.1485 71.6602 88.8399Z" fill="#00A0CF"/>
</g>
<defs>
<clipPath id="clip0_665_454">
<rect width="150" height="108.281" fill="white"/>
</clipPath>
</defs>
</svg>
